<svg viewBox="0 0 114 72" xmlns="http://www.w3.org/2000/svg" xmlns:xlink="http://www.w3.org/1999/xlink" width="114.000000" height="72.000000" fill="none">
	<defs>
		<filter id="pixso_custom_mask_type_outline">
			<feColorMatrix type="matrix" values="0 0 0 0 1 0 0 0 0 1 0 0 0 0 1 0 0 0 1 0 " />
		</filter>
	</defs>
	<mask id="mask_0" width="114.000000" height="72.000000" x="0.000000" y="0.000000" maskUnits="userSpaceOnUse">
		<g filter="url(#pixso_custom_mask_type_outline)">
			<g id="clip0_4_164">
				<path id="Vector" d="M114 0L0 0L0 72L114 72L114 0Z" fill="rgb(255,255,255)" fill-rule="evenodd" />
			</g>
		</g>
	</mask>
	<rect id="logo" width="114.000000" height="72.000000" x="0.000000" y="0.000000" fill="rgb(255,255,255)" fill-opacity="0" />
	<g id="logo_ela" mask="url(#mask_0)">
		<g id="Group">
			<path id="Vector" d="M69.5799 16.4246C70.7647 13.07 72.223 12.1633 74.5933 12.3447C78.9682 12.6166 83.7994 16.7873 87.445 17.0593C92.8224 17.422 95.5573 12.254 96.7422 8.71733C96.8332 8.264 96.2864 7.90133 96.1041 8.44533C95.0105 11.8906 93.5515 13.432 91.0907 13.2507C86.4418 12.888 82.4316 8.89866 78.239 8.53599C73.8642 8.17334 70.1274 12.6159 68.942 16.1527C68.7596 16.606 69.3976 16.9686 69.5799 16.4246Z" fill="rgb(121,24,21)" fill-rule="nonzero" />
			<path id="Vector" d="M113.239 65.5794C111.873 67.6647 110.596 69.75 108.408 69.75C106.403 69.75 105.309 66.9393 104.854 64.4913L100.296 39.0127C97.9263 25.7747 90.5431 23.78 82.9784 23.78C70.2776 23.78 60.0919 30.948 53.9029 44.3027L53.9029 0.657987C53.9029 0.29532 53.5383 0.113987 53.3561 0.29532C50.075 2.01799 43.4209 4.46666 39.8664 5.46332C39.4108 5.55399 39.4108 6.09799 39.8664 6.00732C45.6091 5.55399 46.7938 8.81798 46.7938 13.6239L46.7938 55.3806C42.6865 62.5053 36.4935 67.574 28.5648 67.574C17.6272 67.574 11.5201 61.0454 8.96811 53.7014C8.42126 49.168 12.2499 47.264 17.5361 45.9947C27.3801 43.728 42.1456 43.8186 42.1456 33.8446C42.1456 27.9513 33.5784 23.8706 24.0078 23.8706C8.60287 23.87 0.126709 35.7487 0.126709 49.258C0.126709 61.4986 9.87952 71.382 23.1869 71.382C33.6111 71.382 41.5385 65.7947 46.7938 57.028L46.7938 60.5014C46.7938 67.5733 46.6116 70.022 39.6848 70.1127C39.138 70.1127 39.138 70.7473 39.6848 70.7473C44.4242 70.7473 45.2445 70.4754 46.8857 70.4754L53.8124 70.4754C55.4537 70.4754 56.2733 70.7473 61.0133 70.7473C61.5602 70.7473 61.5602 70.1127 61.0133 70.1127C54.0865 70.022 53.9042 67.574 53.9042 60.5014L53.9042 46.1946C59.4263 33.228 69.6147 24.686 81.7038 24.686C86.5343 24.686 91.0921 29.4007 92.9148 38.1054C93.7351 49.8019 60.2841 49.53 60.2841 62.2239C60.2841 68.208 65.2977 71.7447 71.8605 71.7447C85.3501 71.7447 93.9181 59.0506 94.6472 47.5353L97.746 64.0373C98.3841 67.392 100.298 71.4726 105.949 71.4726C110.142 71.4726 112.056 69.1153 113.971 65.9414C114.153 65.488 113.515 65.216 113.242 65.5787L113.239 65.5794ZM7.50918 45.178C7.50918 31.4867 14.8923 24.686 24.0072 24.686C31.9371 24.686 34.398 29.31 34.4891 34.0253C34.5796 42.8206 25.1009 43.3647 17.4443 45.178C12.8865 46.266 9.05858 47.898 8.32945 51.5253C7.7826 49.3493 7.50918 47.1726 7.50918 45.178ZM77.6004 68.5714C72.2231 68.5714 68.1209 65.942 68.1209 61.3173C68.1209 49.1674 90.5431 49.3487 93.3685 40.644L94.0977 44.452C94.0065 56.1487 86.7152 68.5714 77.6004 68.5714Z" fill="rgb(121,24,21)" fill-rule="nonzero" />
		</g>
	</g>
</svg>
